<?xml version="1.0" encoding="UTF-8" standalone="no"?>
<!-- Created with Inkscape (http://www.inkscape.org/) -->

<svg
   width="117.86572mm"
   height="29.484503mm"
   viewBox="0 0 117.86572 29.484503"
   version="1.1"
   id="svg1"
   inkscape:version="1.3 (0e150ed6c4, 2023-07-21)"
   sodipodi:docname="logo_next_barre.svg"
   xml:space="preserve"
   xmlns:inkscape="http://www.inkscape.org/namespaces/inkscape"
   xmlns:sodipodi="http://sodipodi.sourceforge.net/DTD/sodipodi-0.dtd"
   xmlns="http://www.w3.org/2000/svg"
   xmlns:svg="http://www.w3.org/2000/svg"><sodipodi:namedview
     id="namedview1"
     pagecolor="#ffffff"
     bordercolor="#000000"
     borderopacity="0.25"
     inkscape:showpageshadow="2"
     inkscape:pageopacity="0.0"
     inkscape:pagecheckerboard="0"
     inkscape:deskcolor="#d1d1d1"
     inkscape:document-units="mm"
     inkscape:zoom="2.8284271"
     inkscape:cx="199.40411"
     inkscape:cy="23.5113"
     inkscape:window-width="1920"
     inkscape:window-height="991"
     inkscape:window-x="-9"
     inkscape:window-y="-9"
     inkscape:window-maximized="1"
     inkscape:current-layer="layer1" /><defs
     id="defs1" /><g
     inkscape:label="Calque 1"
     inkscape:groupmode="layer"
     id="layer1"
     transform="translate(117.475,-11.90625)"><path
       style="fill:#000000;stroke-width:0.264583;opacity:0.5"
       d="m -115.80319,41.213508 c -0.62619,-0.223227 -1.24647,-0.788025 -1.48966,-1.356395 -0.15048,-0.351681 -0.18215,-2.650334 -0.18215,-13.220472 0,-12.518302 0.006,-12.806566 0.26421,-13.340549 0.4991,-1.030998 1.70524,-1.576564 2.80484,-1.268695 0.32612,0.09131 0.7448,0.294879 0.9304,0.452381 0.1856,0.157502 1.58125,1.863946 3.10144,3.792097 1.52019,1.928151 4.87528,6.183259 7.45576,9.455798 l 4.691789,5.950066 0.06615,-9.070329 0.06615,-9.070332 0.373351,-0.538648 c 1.043282,-1.505181 3.391213,-1.354661 4.17661,0.267753 l 0.282538,0.583641 -0.035,12.961646 -0.035,12.961643 -0.328456,0.479312 c -0.675352,0.985527 -2.134531,1.37805 -3.14398,0.84574 -0.581303,-0.306538 -0.691304,-0.43607 -4.749762,-5.593119 -7.69622,-9.779519 -10.78731,-13.677165 -10.90417,-13.749388 -0.0741,-0.04579 -0.12207,3.412625 -0.12207,8.800158 0,7.155235 -0.0346,8.958511 -0.17873,9.303364 -0.23625,0.565419 -1.01486,1.235191 -1.63666,1.407866 -0.63229,0.175588 -0.78071,0.169942 -1.40759,-0.05354 z m 31.664834,0.0718 c -0.736314,-0.227586 -1.196848,-0.57059 -1.530485,-1.139899 -0.303522,-0.517919 -0.343773,-0.712539 -0.297543,-1.43859 0.06454,-1.013587 0.46422,-1.625552 1.33789,-2.048488 0.568505,-0.275207 0.680678,-0.278125 10.693246,-0.278125 h 10.118717 l 0.65436,0.328472 c 0.958556,0.481169 1.315947,1.078209 1.315315,2.197309 -5.29e-4,0.798259 -0.04301,0.94307 -0.410901,1.398236 -0.225718,0.279265 -0.612447,0.626816 -0.859393,0.772337 -0.437467,0.257789 -0.708842,0.265181 -10.569307,0.287912 -5.566172,0.01283 -10.269527,-0.02281 -10.451899,-0.07916 z m 50.657132,-0.0044 c -0.686702,-0.208105 -1.066699,-0.604573 -3.38346,-3.530092 -3.554526,-4.488524 -3.861779,-4.909079 -4.026397,-5.511188 -0.408517,-1.494208 0.789527,-3.003119 2.384417,-3.003119 1.229283,0 1.395169,0.154125 4.745511,4.409093 1.690817,2.147358 3.162448,4.115456 3.27029,4.373555 0.763815,1.828069 -1.081053,3.840369 -2.990361,3.261751 z m 20.99782,-0.06735 c -0.626184,-0.223227 -1.246471,-0.788025 -1.48966,-1.356395 -0.149899,-0.350345 -0.182144,-2.417141 -0.182144,-11.674747 V 16.933333 h -3.750572 c -2.440067,0 -3.9077,-0.05235 -4.20026,-0.149824 -0.5979,-0.199203 -1.401604,-0.980947 -1.587453,-1.544077 -0.391819,-1.187223 0.157192,-2.50441 1.257372,-3.016693 l 0.674142,-0.313905 10.001353,-0.0013 c 10.4484674,-0.0013 10.4796617,2.45e-4 11.26491067,0.57583 0.74119051,0.543292 1.10156359,1.895269 0.75188232,2.820776 -0.20004352,0.529459 -0.76473049,1.093218 -1.38064609,1.378378 -0.4757658,0.220273 -0.9129818,0.245289 -4.332552,0.247902 l -3.8033854,0.0029 v 11.249041 c 0,9.148659 -0.033372,11.32891 -0.1787313,11.676806 -0.2362491,0.565419 -1.0148652,1.235191 -1.6366622,1.407866 -0.632288,0.175588 -0.780706,0.169942 -1.407594,-0.05354 z M -39.491523,23.892727 c -0.912383,-0.397553 -1.638741,-1.72093 -1.447858,-2.637912 0.143891,-0.691236 0.58216,-1.314541 3.596712,-5.115232 3.061324,-3.85966 3.458577,-4.233333 4.500469,-4.233333 1.717795,0 2.998653,1.838938 2.354562,3.380463 -0.106066,0.253851 -1.578097,2.217702 -3.271179,4.364112 -3.333964,4.226646 -3.554023,4.431608 -4.746752,4.42108 -0.322641,-0.0029 -0.766318,-0.08348 -0.985954,-0.179178 z m -44.805869,-7.090152 c -1.940658,-0.584999 -2.315144,-3.336267 -0.607914,-4.46623 l 0.54988,-0.363949 10.130057,-0.04003 c 7.075308,-0.02796 10.280317,0.0038 10.628345,0.105186 0.624628,0.182041 1.403715,0.855889 1.638085,1.416813 0.546455,1.307853 -0.259125,2.956215 -1.630915,3.337139 -0.605481,0.168132 -20.151841,0.178586 -20.707538,0.01108 z"
       id="path1" /><path
       style="fill:#4f61ff;stroke-width:0.264583;fill-opacity:1;opacity:0.5"
       d="m -53.310447,41.156397 c -1.19963,-0.5938 -1.70502,-2.21022 -1.05794,-3.38367 0.16944,-0.30728 1.6773,-2.28957 3.35079,-4.4051 1.67349,-2.11552 3.2213,-4.18583 3.43958,-4.60069 0.36424,-0.69225 0.39687,-0.86308 0.39685,-2.0772 -3e-5,-1.17636 -0.0402,-1.40352 -0.36222,-2.05052 -0.19921,-0.40018 -1.79949,-2.54331 -3.55619,-4.7625 -1.75669,-2.21919 -3.28173,-4.2415 -3.38898,-4.49401 -0.46919,-1.10473 0.0974,-2.63892 1.17817,-3.19029 0.73108,-0.37297 1.97669,-0.31691 2.58515,0.11635 0.58048,0.41334 6.87771,8.42201 7.48014,9.51307 1.76531,3.19714 1.69737,6.93369 -0.18246,10.0354 -0.2427,0.40045 -1.92033,2.6025 -3.72806,4.89342 -2.5171,3.1899 -3.40712,4.22671 -3.80063,4.42746 -0.68289,0.34839 -1.62403,0.3397 -2.3542,-0.0217 z m -31.020182,-12.01897 c -1.006287,-0.30886 -1.804599,-1.39166 -1.804599,-2.44769 0,-0.62626 0.362337,-1.47156 0.805366,-1.87884 0.754112,-0.69326 0.836321,-0.70107 7.353585,-0.69794 5.589913,0.003 6.097789,0.0216 6.591234,0.24576 1.869797,0.84933 2.003676,3.43102 0.234942,4.53061 l -0.505,0.31395 -6.151562,0.0242 c -3.383359,0.0133 -6.319144,-0.0272 -6.523966,-0.0901 z"
       id="path1-3" /><path
       style="fill:#ff0000;stroke-width:0.870333;stroke:none;stroke-opacity:1;fill-opacity:1;opacity:1"
       d="m -117.47601,41.073521 c 0,-0.265721 4.51158,-1.445497 27.855379,-7.284201 15.320455,-3.831917 27.855385,-7.045186 27.855385,-7.140595 0,-0.09541 -12.53493,-3.308676 -27.855385,-7.140594 -23.343799,-5.838702 -27.855379,-7.018479 -27.855379,-7.284202 0,-0.269208 0.19137,-0.317076 1.26759,-0.317076 1.06227,0 5.77868,1.128537 29.120099,6.967838 15.318891,3.832311 28.164596,6.967839 28.546014,6.967839 0.381415,0 13.227119,-3.135528 28.546011,-6.967839 23.3414283,-5.839301 28.0578331,-6.967838 29.12011027,-6.967838 1.07621592,0 1.26758051,0.04786 1.26758051,0.317076 0,0.265723 -4.51156428,1.4455 -27.85538278,7.284202 -15.320461,3.831918 -27.855383,7.045186 -27.855383,7.140594 0,0.09541 12.534922,3.308678 27.855383,7.140595 23.3438185,5.838704 27.85538278,7.01848 27.85538278,7.284201 0,0.268815 -0.19195277,0.317078 -1.2611297,0.317078 -1.05373478,0 -5.90023798,-1.159873 -29.47056108,-7.052938 l -28.209431,-7.052937 -28.198372,7.052937 c -23.603211,5.903596 -28.404491,7.052938 -29.463151,7.052938 -1.07313,0 -1.26476,-0.04804 -1.26476,-0.317078 z"
       id="path2" /></g></svg>
