<svg xmlns="http://www.w3.org/2000/svg" width="80" height="44" fill="none"><path fill="#fff" d="M18.7 25.3a.6.6 0 0 1-.2-.5V5.6c0-.2 0-.4.2-.6l.4-.2h3.4c.2 0 .3 0 .5.2l.1.6v15.6a124.8 124.8 0 0 0 8.3-.8l.1.5v2.6l-.1.5-.5.3a98.6 98.6 0 0 1-12.2 1Zm16-3.1c-1.2-.9-1.8-2.5-1.9-4.7v-1a8 8 0 0 1 1.9-5.2c1.2-1.3 2.8-2 4.8-2.1a6 6 0 0 1 3.6.6 5 5 0 0 1 2.3 2c.5 1 .7 2 .8 3.3v.6l-.2.4-.5.3-8.2 1.2v.2c0 .8.3 1.5.6 1.9.4.4.9.6 1.6.5.4-.1.8-.2 1-.5l.8-.7.3-.5h.5a339 339 0 0 1 3.6-.5l.1.3c0 .4-.2 1-.7 1.6a9.2 9.2 0 0 1-5.6 3.1c-2 .4-3.7.1-4.8-.8Zm7-7.7a3 3 0 0 0-.6-2c-.4-.4-1-.6-1.6-.5-.7 0-1.2.4-1.6.9-.4.5-.6 1.3-.6 2.1l4.4-.5ZM1.6 39.2a.5.5 0 0 1-.2-.4l1-7a48.4 48.4 0 0 1-2.2-.9.9.9 0 0 1-.2-.4v-2c0-.2 0-.4.2-.4a44 44 0 0 0 2.7.7L4 19.5a54 54 0 0 1-2.6-.9.8.8 0 0 1-.2-.5v-2l.2-.4c.1 0 .3-.1.4 0l2.6.5a922.8 922.8 0 0 0 1.1-8.4l.4-.2a137 137 0 0 0 2.4.3l.2.5-.9 8.3 2.7.3a716.4 716.4 0 0 0 1-7.4c.1-.2.3-.2.4-.2h2c.2 0 .3.1.4.3l.2.4a767 767 0 0 1-.9 7.1 71.5 71.5 0 0 0 2.3.3l.2.5v2.2l-.2.5-.5.2-2.2-.1-1.2 9.6a48.1 48.1 0 0 0 2.5.3l.2.4V33l-.2.4-.4.1-2.6-.2a441.6 441.6 0 0 1-1.4 9.1l-.4.1a268.9 268.9 0 0 1-2.5-.2A772.9 772.9 0 0 0 8.2 33c-.9 0-1.7-.2-2.6-.4a1148.5 1148.5 0 0 1-1.2 7c0 .2-.2.2-.4.2a92.7 92.7 0 0 1-2.4-.5ZM8.7 30l1.2-9.5-2.6-.4L6 29.5l2.6.5Zm10 13.6-.2-.4v-14c0-.3 0-.4.2-.5l.4-.2c2.6-.1 5.2-.3 7.8-.7 2.2-.2 3.8 0 4.8.7s1.6 1.8 1.6 3.3c0 .9-.2 1.6-.6 2.2l-1.5 1.4a3.5 3.5 0 0 1 2.5 3.4c0 1.5-.6 2.8-1.7 3.6a7.8 7.8 0 0 1-4.8 1.3 2088.9 2088.9 0 0 1-8.5-.1Zm7.7-9c.7 0 1.2-.3 1.6-.6.3-.4.5-.8.5-1.4 0-.5-.2-1-.5-1.2-.4-.3-.9-.4-1.6-.3l-3.3.3V35l3.3-.3Zm.3 6.4c.7 0 1.2-.2 1.6-.6.4-.3.6-.8.6-1.3s-.2-1-.6-1.2c-.4-.4-1-.5-1.6-.4l-3.6.2v3.4h3.6Zm9.7 2.5a.6.6 0 0 1-.2-.5V31.6c0-.2 0-.4.2-.5.1-.2.3-.2.5-.3l3-.5c.1 0 .3 0 .4.2l.2.4v1c1-1.3 2.2-2 3.8-2.3l1.1-.2c.2 0 .3 0 .5.2l.1.4v2.8l-.1.5-.5.2-2.5.3c-.7.1-1.2.4-1.6.8-.4.5-.6 1-.6 1.8V43c0 .2 0 .3-.2.4-.1.2-.3.2-.4.2h-3.2l-.5-.1ZM48 26.9l-.2-.5v-2.3c0-.2 0-.4.2-.5l.5-.3A126.8 126.8 0 0 1 52 23l.2.4v2.4l-.2.5-.5.3a158 158 0 0 0-3.5.3Zm0 16.5a.7.7 0 0 1-.2-.5V29.7l.2-.5.5-.2a204.1 204.1 0 0 1 3.5-.3l.1.5v13.6l-.1.5c-.2.2-.3.3-.5.3h-3c-.2 0-.4 0-.5-.2Zm8.5-1.6a8.7 8.7 0 0 1-1.9-5.7v-1c0-2.3.7-4.1 2-5.5 1.1-1.3 2.7-2 4.7-2a5.7 5.7 0 0 1 5.9 3.7c.5 1.1.8 2.5.8 4v.8l-.2.5-.5.2h-8.2v.2c0 1 .3 1.7.6 2.3.4.6.9 1 1.6 1 .4 0 .8-.2 1-.4l.8-.8.3-.4.5-.1a131.6 131.6 0 0 1 3.6.2l.1.5c0 .5-.2 1.1-.7 1.9a6.7 6.7 0 0 1-5.6 2.7c-2 0-3.7-.7-4.8-2.1Zm7-8v-.1a4 4 0 0 0-.6-2.3c-.4-.6-1-.8-1.6-.8-.7 0-1.2.3-1.6.9a4 4 0 0 0-.6 2.3h4.4Zm8.5 9.5a.8.8 0 0 1-.2-.5V32a62.6 62.6 0 0 0-2.4-.4.8.8 0 0 1-.2-.6v-2.3c0-.2 0-.3.2-.4 0-.2.2-.2.4-.2.7 0 1.3.2 2 .3v-.9c0-1.8.4-3 1.4-3.6 1-.5 2.4-.6 4.2 0a37.6 37.6 0 0 1 2.4.9l.2.5v2.1c0 .2 0 .3-.2.4h-.4l-1.8-.5c-.6-.2-1-.2-1.2 0-.3.2-.4.6-.4 1.2v.7a49.7 49.7 0 0 1 3.6 1.2l.1.5v2l-.1.5H79l-3-.7V43c0 .2-.1.3-.3.5l-.4.2h-3c-.2 0-.3-.1-.5-.3Zm-9.5-22.6-2 2c-.8.7-1.5.8-2 1l-.8.1-2.2 2.3-.5.2a.5.5 0 0 1-.5-.3.7.7 0 0 1 0-1l2.2-2.2c.4-.4 1-.5 1.5-.6.5 0 .9-.1 1.2-.5l2-2 1 1ZM52.7 2.4l-.2-.1L46.9 0a.7.7 0 0 0-.9 1l2.2 5.5.2.2L51 9.4a4 4 0 0 1 1-1l-2.2-2.2.6-.6 2.3 2.3 1.4-.7-2.7-2.6.7-.7 3 3c.6 0 1 0 1.4.2l.4-.3-4.3-4.4Zm-1.8.8L49.1 5 48 2l3 1.2Z" style="fill:#fff;fill-opacity:1"/><path fill="#fff" d="m70.6 20.4-4-4.2-1 1 2.1 2.3-.6.6L65 18h-.1c-.4.4-.8.6-1.3.6l2.6 2.6-.6.7-7.6-7.6-.1-.1v2l3.7 3.6 1 1 3.9 4c.3.3.8.4 1.2.4.5 0 1-.1 1.3-.5l1.7-1.7c.7-.7.7-1.8 0-2.5Zm-1 1.6L68 23.6c-.1.2-.4.2-.5 0l-1-.9 1.2-1 1.1-1.2.9.9c.2.1.2.4 0 .6Z" style="fill:#fff;fill-opacity:1"/><path fill="#fff" d="m67 13-.4-.4c-.2-.3-.6-.4-1-.5.1-.6 0-1.2-.5-1.6l-.4-.5-.4-.3c.1-.7-.2-1.5-.7-2l-.5-.4c-.5-.6-1.2-.7-1.8-.4l-.5-.7-.4-.5c-.8-.7-1.6-.7-2.4 0l-1 1-.4.4a2.7 2.7 0 0 0-1.5-.1l-1 .2a10 10 0 0 0-2 1.2 4 4 0 0 0-1 1c-.4.7-.7 1.5-.7 2.3v4c0 .5-.2 1-.5 1.3l-3.2 3.7a.7.7 0 0 0 1 .9l3.3-3.7c.5-.6.8-1.4.8-2.2v-4c0-1 .8-2 1.1-2.2.3-.2.8-.6 1.4-.8l1-.3c.5-.1.9 0 1.3.4l1.8 1.8 2.1 2.1a2 2 0 0 1-.8.4c-.4 0-1 0-1.5-.4l-2-2a.7.7 0 1 0-1 1c1.2 1.2 1.8 4.6.4 6a.7.7 0 0 0 1 1c.7-.6 1-1.6 1.2-2.7v-2l.1.2c.5.2 1 .4 1.5.3 0 .2.2.3.3.5l.5.4c.2.3.6.5 1 .6-.1.5 0 1.1.5 1.5l.4.5c.4.3.9.5 1.4.5.5 0 1-.2 1.3-.5l.7-.8 1-1 .6-.5a1.9 1.9 0 0 0 0-2.7Zm-9.2-5L59 6.8l.2-.2.2.1.4.5.4.5V8l-1.4 1-1-1Zm2.1 2.1L61.1 9l.6-.6.2-.2.2.1.5.5.3.5v.2l-.8.8-1 1-1.2-1Zm2 4.5h-.3a1 1 0 0 1-.4-.2l-.3-.2c.6-.3 1-.8 1.2-1.3v-.7l1-1c.2-.2.4-.3.6-.2l.4.5.2.4-.1.5-.2.1-2.1 2.1Zm4.2.1L63.8 17c-.2.2-.5.2-.7 0l-.4-.5a.5.5 0 0 1 0-.7l.2-.2 2-2a.5.5 0 0 1 .7 0l.5.4.1.4-.1.3Z" style="fill:#fff;fill-opacity:1"/></svg>